<svg xmlns="http://www.w3.org/2000/svg" viewBox="0 0 800 500" role="img" aria-label="Digital campaign concept — one story told across every surface">
  <defs>
    <linearGradient id="cbg" x1="0" y1="0" x2="1" y2="1">
      <stop offset="0" stop-color="#14161b"/>
      <stop offset="1" stop-color="#0a0c10"/>
    </linearGradient>
    <linearGradient id="goldgrad" x1="0" y1="0" x2="0" y2="1">
      <stop offset="0" stop-color="#ecc06a"/>
      <stop offset="1" stop-color="#a97c2f"/>
    </linearGradient>
    <radialGradient id="halo" cx=".5" cy=".45" r=".65">
      <stop offset="0" stop-color="#d9a441" stop-opacity=".14"/>
      <stop offset="1" stop-color="#d9a441" stop-opacity="0"/>
    </radialGradient>
  </defs>
  <rect width="800" height="500" fill="url(#cbg)"/>
  <rect width="800" height="500" fill="url(#halo)"/>
<circle cx="120" cy="150" r="34" fill="#101216" stroke="#faf7f2" stroke-width="2"/>
<text x="120" y="155" text-anchor="middle" fill="#d9d4c8" font-family="ui-monospace, monospace" font-size="10">WEB</text>
<circle cx="320" cy="110" r="34" fill="#101216" stroke="#faf7f2" stroke-width="2"/>
<text x="320" y="115" text-anchor="middle" fill="#d9d4c8" font-family="ui-monospace, monospace" font-size="10">PRINT</text>
<circle cx="540" cy="150" r="34" fill="#101216" stroke="#faf7f2" stroke-width="2"/>
<text x="540" y="155" text-anchor="middle" fill="#d9d4c8" font-family="ui-monospace, monospace" font-size="10">WHATSAPP</text>
<circle cx="660" cy="260" r="34" fill="#101216" stroke="#faf7f2" stroke-width="2"/>
<text x="660" y="265" text-anchor="middle" fill="#d9d4c8" font-family="ui-monospace, monospace" font-size="10">STORE</text>
<circle cx="200" cy="320" r="34" fill="#101216" stroke="#faf7f2" stroke-width="2"/>
<text x="200" y="325" text-anchor="middle" fill="#d9d4c8" font-family="ui-monospace, monospace" font-size="10">OOH</text>
<path d="M120 150Q220 106 320 110" fill="none" stroke="#d9a441" stroke-opacity=".35" stroke-dasharray="2 8"/>
<path d="M320 110Q430 106 540 150" fill="none" stroke="#d9a441" stroke-opacity=".35" stroke-dasharray="2 8"/>
<path d="M540 150Q600 181 660 260" fill="none" stroke="#d9a441" stroke-opacity=".35" stroke-dasharray="2 8"/>
<path d="M120 150Q160 211 200 320" fill="none" stroke="#d9a441" stroke-opacity=".35" stroke-dasharray="2 8"/>
<path d="M200 320Q260 191 320 110" fill="none" stroke="#d9a441" stroke-opacity=".35" stroke-dasharray="2 8"/>
<text x="400" y="452" text-anchor="middle" fill="#b9ac93" font-family="ui-monospace, monospace" font-size="13">ONE STORY · EVERY SURFACE · ONE MEASUREMENT</text>
</svg>