<svg xmlns="http://www.w3.org/2000/svg" viewBox="0 0 800 500" role="img" aria-label="Interactive installation concept — screens reacting to people nearby">
  <defs>
    <linearGradient id="cbg" x1="0" y1="0" x2="1" y2="1">
      <stop offset="0" stop-color="#14161b"/>
      <stop offset="1" stop-color="#0a0c10"/>
    </linearGradient>
    <linearGradient id="goldgrad" x1="0" y1="0" x2="0" y2="1">
      <stop offset="0" stop-color="#ecc06a"/>
      <stop offset="1" stop-color="#a97c2f"/>
    </linearGradient>
    <radialGradient id="halo" cx=".5" cy=".45" r=".65">
      <stop offset="0" stop-color="#d9a441" stop-opacity=".14"/>
      <stop offset="1" stop-color="#d9a441" stop-opacity="0"/>
    </radialGradient>
  </defs>
  <rect width="800" height="500" fill="url(#cbg)"/>
  <rect width="800" height="500" fill="url(#halo)"/>
<rect x="110" y="130" width="150" height="200" fill="#101216" stroke="#faf7f2" stroke-width="2.5"/>
<rect x="124" y="290" width="48" height="14" fill="#d9a441" opacity="0.8"/>
<rect x="124" y="264" width="85" height="14" fill="#d9a441" opacity="0.5800000000000001"/>
<rect x="124" y="238" width="122" height="14" fill="#d9a441" opacity="0.36000000000000004"/>
<rect x="330" y="100" width="170" height="240" fill="#101216" stroke="#faf7f2" stroke-width="2.5"/>
<rect x="344" y="300" width="99" height="14" fill="#d9a441" opacity="0.8"/>
<rect x="344" y="274" width="142" height="14" fill="#d9a441" opacity="0.5800000000000001"/>
<rect x="344" y="248" width="56" height="14" fill="#d9a441" opacity="0.36000000000000004"/>
<rect x="570" y="150" width="150" height="190" fill="#101216" stroke="#faf7f2" stroke-width="2.5"/>
<rect x="584" y="300" width="122" height="14" fill="#d9a441" opacity="0.8"/>
<rect x="584" y="274" width="48" height="14" fill="#d9a441" opacity="0.5800000000000001"/>
<rect x="584" y="248" width="85" height="14" fill="#d9a441" opacity="0.36000000000000004"/>
<path d="M185 330q60 40 120 0" fill="none" stroke="#d9a441" stroke-width="2.5" stroke-dasharray="1 8"/>
<path d="M415 340q70 46 140 0" fill="none" stroke="#d9a441" stroke-width="2.5" stroke-dasharray="1 8"/>
<text x="400" y="452" text-anchor="middle" fill="#b9ac93" font-family="ui-monospace, monospace" font-size="13">PRESENCE IN -> LIGHT AND SOUND OUT</text>
</svg>