<svg xmlns="http://www.w3.org/2000/svg" viewBox="0 0 800 500" role="img" aria-label="Insurance claims automation — intake through assessment to settlement">
  <defs>
    <linearGradient id="bg" x1="0" y1="0" x2="1" y2="1">
      <stop offset="0" stop-color="#121916"/>
      <stop offset="1" stop-color="#0b0f0e"/>
    </linearGradient>
    <pattern id="grid" width="40" height="40" patternUnits="userSpaceOnUse">
      <path d="M40 0H0V40" fill="none" stroke="#40dca9" stroke-opacity=".06"/>
    </pattern>
    <linearGradient id="acc" x1="0" y1="0" x2="0" y2="1">
      <stop offset="0" stop-color="#40dca9"/>
      <stop offset="1" stop-color="#0a8a63"/>
    </linearGradient>
  </defs>
  <rect width="800" height="500" fill="url(#bg)"/>
  <rect width="800" height="500" fill="url(#grid)"/>
<rect x="90" y="150" width="120" height="110" rx="10" fill="#0e1513" stroke="#40dca9" stroke-width="1.5"/>
<text x="150" y="200" text-anchor="middle" fill="#40dca9" font-family="ui-monospace, monospace" font-size="18">01</text>
<text x="150" y="228" text-anchor="middle" fill="#E2E8F0" font-family="ui-monospace, monospace" font-size="12">INTAKE</text>
<path d="M214 205h52" stroke="#aeb9b4" stroke-width="2.5" stroke-dasharray="2 8" stroke-linecap="round"/>
<rect x="270" y="150" width="120" height="110" rx="10" fill="#0e1513" stroke="#33413b" stroke-width="1.2"/>
<text x="330" y="200" text-anchor="middle" fill="#E2E8F0" font-family="ui-monospace, monospace" font-size="18">02</text>
<text x="330" y="228" text-anchor="middle" fill="#E2E8F0" font-family="ui-monospace, monospace" font-size="12">ASSESS</text>
<path d="M394 205h52" stroke="#aeb9b4" stroke-width="2.5" stroke-dasharray="2 8" stroke-linecap="round"/>
<rect x="450" y="150" width="120" height="110" rx="10" fill="#0e1513" stroke="#33413b" stroke-width="1.2"/>
<text x="510" y="200" text-anchor="middle" fill="#E2E8F0" font-family="ui-monospace, monospace" font-size="18">03</text>
<text x="510" y="228" text-anchor="middle" fill="#E2E8F0" font-family="ui-monospace, monospace" font-size="12">APPROVE</text>
<path d="M574 205h52" stroke="#aeb9b4" stroke-width="2.5" stroke-dasharray="2 8" stroke-linecap="round"/>
<rect x="630" y="150" width="120" height="110" rx="10" fill="#0e1513" stroke="#33413b" stroke-width="1.2"/>
<text x="690" y="200" text-anchor="middle" fill="#E2E8F0" font-family="ui-monospace, monospace" font-size="18">04</text>
<text x="690" y="228" text-anchor="middle" fill="#E2E8F0" font-family="ui-monospace, monospace" font-size="12">SETTLE</text>
<rect x="90" y="320" width="300" height="110" rx="6" fill="#0e1513" stroke="#33413b" stroke-width="1.5"/>
<text x="112" y="352" text-anchor="13" fill="#aeb9b4" font-family="ui-monospace, monospace" font-size="15">CLAIM CLM-4471</text>
<text x="112" y="384" text-anchor="12" fill="#aeb9b4" font-family="ui-monospace, monospace" font-size="15">PHOTOS + POLICY CHECK AUTOMATED</text>
<text x="112" y="412" text-anchor="15" fill="#40dca9" font-family="ui-monospace, monospace" font-size="15">PAYOUT IN 48H WINDOW</text>
<rect x="430" y="320" width="320" height="110" rx="6" fill="#0e1513" stroke="#33413b" stroke-width="1.5"/>
<path d="M590 342l-38 12v26q0 26 38 40 38-14 38-40v-26z" fill="none" stroke="#40dca9" stroke-width="3"/>
<text x="470" y="412" text-anchor="12" fill="#aeb9b4" font-family="ui-monospace, monospace" font-size="15">FRAUD FLAGS REVIEWED BY STAFF</text>
<text x="60" y="464" text-anchor="start" fill="#E2E8F0" font-family="ui-monospace, monospace" font-size="15">POLICYHOLDER -> ASSESSOR -> FINANCE</text>
</svg>