<svg xmlns="http://www.w3.org/2000/svg" viewBox="0 0 800 500" role="img" aria-label="Event stage with audience silhouettes">
<defs><linearGradient id="bg" x1="0" y1="0" x2="0" y2="1"><stop offset="0" stop-color="#0e1210"/><stop offset="1" stop-color="#070a08"/></linearGradient><linearGradient id="gold" x1="0" y1="0" x2="0" y2="1"><stop offset="0" stop-color="#ecc06a"/><stop offset="1" stop-color="#a97c2f"/></linearGradient><radialGradient id="vig" cx=".5" cy=".42" r=".75"><stop offset="0" stop-color="#000" stop-opacity=".0"/><stop offset="1" stop-color="#000" stop-opacity=".55"/></radialGradient></defs>
<rect width="800" height="500" fill="url(#bg)"/><path d="M120 460l90-300 30 0-60 300z" fill="#d9a441" opacity=".16"/>
<path d="M680 460l-90-300-30 0 60 300z" fill="#d9a441" opacity=".16"/>
<rect x="200" y="330" width="400" height="90" rx="8" fill="#1c1f26" stroke="#3a3d46"/>
<path d="M240 400l40-50 30 22 40-44 34 30 40-40 36 34" stroke="#d9a441" stroke-width="5" fill="none"/>
<circle cx="230" cy="446" r="10" fill="#2c2f38" stroke="#4a4d56"/>
<circle cx="278" cy="446" r="10" fill="#2c2f38" stroke="#4a4d56"/>
<circle cx="326" cy="446" r="10" fill="#2c2f38" stroke="#4a4d56"/>
<circle cx="374" cy="446" r="10" fill="#2c2f38" stroke="#4a4d56"/>
<circle cx="422" cy="446" r="10" fill="#2c2f38" stroke="#4a4d56"/>
<circle cx="470" cy="446" r="10" fill="#2c2f38" stroke="#4a4d56"/>
<circle cx="518" cy="446" r="10" fill="#2c2f38" stroke="#4a4d56"/>
<circle cx="566" cy="446" r="10" fill="#2c2f38" stroke="#4a4d56"/>
<path d="M160 460h480" stroke="#d9a441" stroke-width="4"/>
<text x="400" y="80" text-anchor="middle" fill="#ecc06a" font-family="Space Grotesk, sans-serif" font-size="17" font-weight="bold" letter-spacing="3">SUMMIT · 12 SEATS LEFT</text>
<text x="70" y="430" text-anchor="start" fill="#8a8272" font-family="ui-monospace, monospace" font-size="13" font-weight="normal" letter-spacing="0">LIVE OVERLAY + SECOND SCREEN</text>
<rect width="800" height="500" fill="url(#vig)" opacity=".4"/>
</svg>
